<?xml version="1.0" standalone="no"?>
<!DOCTYPE svg PUBLIC "-//W3C//DTD SVG 20010904//EN"
 "http://www.w3.org/TR/2001/REC-SVG-20010904/DTD/svg10.dtd">
<svg version="1.0" xmlns="http://www.w3.org/2000/svg"
 width="1200.000000pt" height="1200.000000pt" viewBox="0 0 1200.000000 1200.000000"
 preserveAspectRatio="xMidYMid meet">

<g transform="translate(0.000000,1200.000000) scale(0.100000,-0.100000)"
fill="#000000" stroke="none">
<path d="M1600 9400 l0 -2600 -200 0 -200 0 0 -200 0 -200 -200 0 -200 0 0
-200 0 -200 200 0 200 0 0 -200 0 -200 200 0 200 0 0 -200 0 -200 400 0 400 0
0 -200 0 -200 600 0 600 0 0 -600 0 -600 -200 0 -200 0 0 -600 0 -600 -200 0
-200 0 0 -800 0 -800 200 0 200 0 0 -200 0 -200 200 0 200 0 0 -200 0 -200
2800 0 2800 0 0 400 0 400 400 0 400 0 0 200 0 200 200 0 200 0 0 200 0 200
200 0 200 0 0 400 0 400 200 0 200 0 0 400 0 400 200 0 200 0 0 600 0 600 200
0 200 0 0 2200 0 2200 -200 0 -200 0 0 200 0 200 -200 0 -200 0 0 200 0 200
-200 0 -200 0 0 -200 0 -200 -200 0 -200 0 0 -200 0 -200 -200 0 -200 0 0
1400 0 1400 -200 0 -200 0 0 200 0 200 -400 0 -400 0 0 -200 0 -200 -200 0
-200 0 0 -200 0 -200 -200 0 -200 0 0 -200 0 -200 -200 0 -200 0 0 -200 0
-200 -1800 0 -1800 0 0 200 0 200 -200 0 -200 0 0 200 0 200 -200 0 -200 0 0
200 0 200 -200 0 -200 0 0 200 0 200 -600 0 -600 0 0 -2600z m800 2000 l0
-200 400 0 400 0 0 -200 0 -200 -200 0 -200 0 0 -200 0 -200 -200 0 -200 0 0
-1200 0 -1200 -200 0 -200 0 0 1800 0 1800 200 0 200 0 0 -200z m7200 -600 l0
-800 -200 0 -200 0 0 600 0 600 -200 0 -200 0 0 200 0 200 400 0 400 0 0 -800z
m1600 -1800 l0 -200 200 0 200 0 0 -800 0 -800 -200 0 -200 0 0 400 0 400
-200 0 -200 0 0 -200 0 -200 -200 0 -200 0 0 -200 0 -200 -200 0 -200 0 0 600
0 600 200 0 200 0 0 200 0 200 200 0 200 0 0 200 0 200 200 0 200 0 0 -200z
m-2000 -1400 l0 -400 200 0 200 0 0 -400 0 -400 200 0 200 0 0 -200 0 -200
200 0 200 0 0 -200 0 -200 -400 0 -400 0 0 -200 0 -200 -1400 0 -1400 0 0
-200 0 -200 -1200 0 -1200 0 0 200 0 200 -1000 0 -1000 0 0 200 0 200 -400 0
-400 0 0 600 0 600 200 0 200 0 0 200 0 200 200 0 200 0 0 200 0 200 800 0
800 0 0 -400 0 -400 400 0 400 0 0 200 0 200 200 0 200 0 0 -200 0 -200 400 0
400 0 0 200 0 200 200 0 200 0 0 -200 0 -200 400 0 400 0 0 200 0 200 400 0
400 0 0 200 0 200 400 0 400 0 0 200 0 200 200 0 200 0 0 -400z m-2800 -3400
l0 -200 200 0 200 0 0 -200 0 -200 200 0 200 0 0 -1600 0 -1600 -1200 0 -1200
0 0 1600 0 1600 200 0 200 0 0 400 0 400 600 0 600 0 0 -200z"/>
</g>
</svg>
